<?xml version="1.0" standalone="no"?>
<!DOCTYPE svg PUBLIC "-//W3C//DTD SVG 20010904//EN"
 "http://www.w3.org/TR/2001/REC-SVG-20010904/DTD/svg10.dtd">
<svg version="1.0" xmlns="http://www.w3.org/2000/svg"
 width="431.000000pt" height="90.000000pt" viewBox="0 0 431.000000 90.000000"
 preserveAspectRatio="xMidYMid meet">

<g transform="translate(0.000000,90.000000) scale(0.100000,-0.100000)"
fill="#000000" stroke="none">
<path d="M3170 829 c-30 -4 -73 -14 -95 -22 l-40 -14 -10 -129 -10 -129 -40
144 -40 144 -145 -7 c-79 -4 -145 -8 -147 -10 -9 -8 -192 -643 -189 -652 2 -6
43 -14 93 -18 48 -4 109 -9 135 -13 l46 -5 7 44 c9 61 17 70 56 66 32 -3 35
-6 48 -56 l14 -53 51 6 c28 3 63 8 79 11 16 3 27 1 27 -5 0 -7 42 -11 125 -11
l125 0 0 96 c0 83 2 95 16 92 11 -2 29 -37 51 -99 l34 -96 121 23 c66 13 123
25 126 28 2 3 -20 50 -50 105 l-55 100 39 38 c26 25 44 55 54 90 12 42 37 73
50 61 1 -2 5 -86 9 -188 3 -102 8 -200 11 -218 l5 -32 112 6 c62 4 114 9 117
11 4 3 17 278 19 391 l1 42 70 0 70 0 0 89 c0 49 3 103 6 120 l7 31 -282 0
c-252 0 -281 -2 -281 -16 0 -15 -2 -15 -25 0 -61 40 -188 54 -315 35z m169
-215 c12 -15 21 -35 21 -44 0 -26 -31 -58 -62 -66 -32 -7 -34 2 -22 90 8 54
30 62 63 20z m-546 -184 c3 -11 1 -20 -4 -20 -5 0 -9 9 -9 20 0 11 2 20 4 20
2 0 6 -9 9 -20z"/>
<path d="M355 809 c-27 -5 -63 -12 -80 -17 l-30 -8 -7 -320 c-4 -175 -5 -325
-3 -332 3 -8 34 -12 110 -12 l105 0 0 109 0 109 53 7 c133 17 214 62 253 142
50 101 17 219 -76 278 -78 49 -200 66 -325 44z m197 -196 c10 -9 18 -30 18
-49 0 -39 -38 -74 -81 -74 -28 0 -29 1 -29 54 0 30 3 61 6 70 8 21 62 21 86
-1z"/>
<path d="M1125 792 c-3 -3 -5 -83 -5 -179 l0 -173 -51 0 -50 0 7 168 7 169
-78 6 c-43 4 -93 7 -110 7 l-33 0 -6 -152 c-3 -84 -8 -233 -11 -331 l-6 -177
104 0 104 0 7 61 c3 34 6 82 6 106 l0 44 53 -3 52 -3 3 -97 3 -98 47 0 c26 0
78 3 116 7 l69 6 -8 316 c-4 174 -8 317 -8 317 -6 5 -208 10 -212 6z"/>
<path d="M1370 679 l0 -112 69 6 69 6 8 -217 9 -217 95 4 c52 2 97 5 99 7 4 4
19 294 20 397 l1 37 70 0 70 0 0 100 0 100 -255 0 -255 0 0 -111z"/>
<path d="M2073 774 c-61 -23 -127 -86 -162 -156 -26 -51 -31 -73 -31 -131 0
-88 13 -133 59 -194 25 -34 55 -58 101 -81 61 -32 70 -33 145 -30 95 5 143 26
202 90 140 152 98 411 -79 488 -68 29 -176 36 -235 14z m142 -200 c44 -17 60
-122 25 -167 -39 -50 -116 -43 -145 12 -37 72 2 161 70 161 18 0 41 -3 50 -6z"/>
</g>
</svg>
